<svg width="674" height="519" viewBox="0 0 674 519" fill="none" xmlns="http://www.w3.org/2000/svg">
<path d="M629.888 182.827C632.925 182.827 635.631 184.743 636.641 187.607L643.606 207.37C644.454 210.08 648.511 209.994 649.503 207.333C649.549 207.21 649.595 207.088 649.641 206.967L656.412 187.621C657.418 184.75 660.128 182.827 663.17 182.827H666.623C670.578 182.827 673.783 186.032 673.783 189.987V228.592C673.783 231.759 671.216 234.326 668.049 234.326C664.882 234.326 662.315 231.759 662.315 228.592V218.232C662.315 212.877 662.343 208.718 662.398 205.754C662.413 204.995 661.51 204.827 661.31 205.56L652.811 229.863C651.877 232.536 649.355 234.326 646.523 234.326C643.692 234.326 641.17 232.536 640.236 229.863L631.737 205.56C631.537 204.827 630.634 204.995 630.648 205.754C630.704 208.718 630.732 212.877 630.732 218.232V228.592C630.732 231.759 628.164 234.326 624.998 234.326C621.831 234.326 619.264 231.759 619.264 228.592V200.85C619.264 196.896 616.058 193.691 612.104 193.691H604.495C600.541 193.691 597.335 196.896 597.335 200.85V228.391C597.335 231.669 594.678 234.326 591.401 234.326C588.123 234.326 585.466 231.669 585.466 228.391V200.85C585.466 196.896 582.261 193.691 578.306 193.691H575.208C572.208 193.691 569.776 191.259 569.776 188.259C569.776 185.259 572.208 182.827 575.208 182.827H629.888Z" fill="#141414"></path>
<path d="M436.217 22.8089C438.899 25.3804 443.027 25.9953 446.177 24.0259C486.418 -1.13237 535.083 -6.61768 569.776 7.97273C654.096 43.6293 580.333 143.102 526.924 87.5516C493.411 50.9788 455.765 67.9644 454.847 115.71C454.847 129.942 455.002 137.899 455.461 163.302C455.461 171.566 461.123 176.616 473.977 176.463C488.974 176.31 501.829 176.465 516.673 176.159C562.736 175.088 560.898 240.279 516.978 239.208C501.217 238.902 488.67 239.056 473.368 238.903C462.044 238.75 455.461 245.636 455.461 258.797C454.849 293.535 454.696 348.932 455.461 402.033C456.073 446.718 460.358 454.522 505.653 466.764C533.505 475.334 527.845 517.42 494.18 518.339C442.914 519.105 399.143 519.105 350.02 518.339C348.515 518.289 347.06 518.125 345.656 517.864C344.583 517.665 343.482 517.648 342.405 517.831C340.75 518.113 339.012 518.29 337.191 518.339C285.925 519.105 242.154 519.105 193.031 518.339C190.384 518.251 187.887 517.821 185.558 517.11C183.78 516.567 181.875 516.531 180.087 517.039C177.416 517.797 174.491 518.253 171.317 518.339C120.051 519.105 76.2804 519.105 27.157 518.339C-0.234449 517.42 -11.7087 480.387 15.6835 467.992C43.228 456.821 48.8888 451.615 49.501 403.106C50.1132 360.104 50.2662 300.57 49.501 255.732C49.5006 242.267 45.2165 237.065 36.036 235.994L21.3428 234.616C-5.13037 230.943 -6.81334 193.3 18.5878 183.505C45.8276 174.017 49.6542 167.892 50.4194 152.741C55.7768 28.4814 178.508 -20.7962 246.913 7.97273C258.527 12.8841 267.14 19.0092 273.221 25.7715C275.986 28.8462 280.678 29.685 284.098 27.3605C325.262 -0.618795 376.616 -7.23955 412.787 7.97273C422.678 12.1555 430.39 17.2211 436.217 22.8089ZM209.535 238.652C208.096 237.609 206.21 237.658 204.488 238.097C201.343 238.899 197.884 239.3 194.115 239.208C178.355 238.902 165.807 239.056 150.506 238.903C139.181 238.75 132.598 245.636 132.598 258.797C131.986 293.535 131.833 348.932 132.598 402.033C133.21 446.718 137.495 454.522 182.791 466.764C183.411 466.955 184.092 466.938 184.692 466.688C209.532 456.332 214.786 449.713 215.375 403.106C215.987 360.104 216.14 300.57 215.375 255.732C215.374 246.801 213.485 241.515 209.535 238.652ZM368.866 240.941C367.702 239.405 365.675 238.997 363.752 239.128C362.534 239.21 361.279 239.239 359.989 239.208C344.228 238.902 331.68 239.056 316.379 238.903C305.055 238.75 298.472 245.636 298.472 258.797C297.86 293.535 297.707 348.932 298.472 402.033C299.052 444.365 302.929 453.596 341.847 464.859C343.428 465.317 345.149 465.211 346.647 464.532C367.236 455.194 371.817 446.426 372.364 403.106C372.976 360.104 373.129 300.57 372.364 255.732C372.363 248.796 371.224 244.056 368.866 240.941ZM204.062 87.5516C170.548 50.9788 132.902 67.9644 131.984 115.71C131.984 129.942 132.139 137.899 132.598 163.302C132.598 171.566 138.26 176.616 151.114 176.463C166.111 176.31 178.967 176.465 193.811 176.159C195.585 176.117 197.287 176.179 198.919 176.329C200.422 176.468 201.955 176.245 203.265 175.495C213.727 169.498 215.758 163.326 216.293 152.741C216.974 136.944 219.565 122.363 223.692 108.997C224.883 105.138 222.824 101 219.237 99.1449C214.099 96.4872 208.993 92.6805 204.062 87.5516ZM369.935 87.5516C336.421 50.9788 298.776 67.9644 297.858 115.71C297.858 129.942 298.013 137.899 298.472 163.302C298.472 171.566 304.134 176.616 316.988 176.463C331.181 176.318 343.456 176.442 357.314 176.197C358.453 176.177 359.581 175.888 360.565 175.314C370.756 169.373 372.753 163.22 373.282 152.741C374.039 135.192 377.147 119.143 382.105 104.594C383.266 101.188 381.855 97.433 378.92 95.3517C375.883 93.198 372.877 90.6112 369.935 87.5516Z" fill="#141414"></path>
</svg>