<svg width="634" height="460" viewBox="0 0 634 460" fill="none" xmlns="http://www.w3.org/2000/svg">
<path d="M372.243 0C374.059 5.32326e-06 375.86 0.0273091 377.648 0.0667846L391.623 0.799031C425.203 3.64411 453.32 14.1435 475.526 32.7292L476.783 33.762C502.979 55.5681 515.918 85.5207 515.918 122.745C515.918 162.258 498.647 193.402 465.083 215.776C484.271 227.377 499.351 241.175 510.058 257.281C522.789 276.43 529.075 298.45 529.075 323.082C529.075 363.691 514.734 396.876 485.884 421.907C457.556 447.234 420.424 459.581 375.232 459.581C326.528 459.581 287.637 446.871 259.582 420.516L259.561 420.497L259.542 420.478C231.883 394.095 218.585 358.308 218.999 314.043L219.068 306.785H283.098L283.286 313.919C284.047 342.814 292.528 363.811 307.796 378.053L309.258 379.344C324.576 392.471 346.255 399.477 375.232 399.477C402.63 399.477 423.429 392.274 438.491 378.647L438.522 378.619L438.556 378.59C453.452 365.425 461.295 347.902 461.77 325.286L461.794 323.082C461.794 299.016 453.748 280.615 438.019 267.031L437.952 266.974L437.885 266.914C422.929 253.35 402.214 245.961 374.907 245.512L372.243 245.491H333.219V188.974H369.252C396.56 188.974 416.354 182.812 429.716 171.56L429.752 171.532L429.788 171.501C443.406 160.326 450.431 144.792 450.431 123.94C450.431 103.534 443.443 88.4332 429.876 77.649L429.795 77.5846L429.716 77.5179C416.688 66.5471 398.575 60.4884 374.583 60.1205L372.243 60.1038C346.829 60.1038 327.37 66.7164 313.079 79.2209L313.07 79.2304C299.445 91.1083 291.593 109.102 290.458 134.435L290.146 141.436H225.501L225.577 134.032C225.861 106.505 232.091 82.4688 244.499 62.2075H67.1376V189.384H195.242V251.523H67.1376V459.583H0V0.0691698L366.986 0.0667846C368.713 0.0272823 370.467 0 372.243 0Z" fill="#141414"></path>
<path d="M592.304 0.207661L601.505 26.3151L604.716 36.5861C605.715 32.449 606.784 28.8819 607.925 25.886L616.913 0.207661H633.605V54.9888H621.407V37.8691C621.407 29.0246 621.477 23.2465 621.62 20.536C621.192 21.5347 620.765 22.8202 620.337 24.3895L609.637 54.9888H599.58L588.88 24.3895C588.452 22.8202 588.024 21.5347 587.596 20.536C587.739 23.2465 587.81 29.0246 587.81 37.8691V54.9888H575.611V11.7638H552.286V54.9888H539.66V11.7638H522.969V0.207661H592.304Z" fill="#141414"></path>
</svg>